<?xml version="1.0" encoding="utf-8"?><svg xmlns="http://www.w3.org/2000/svg" xmlns:xlink="http://www.w3.org/1999/xlink"><symbol viewBox="0 0 90 70" id="door" xmlns="http://www.w3.org/2000/svg">
    <path d="M10.3928 67.2819C10.5814 68.4644 11.6012 69.3345 12.7987 69.3345H75.0523C78.3413 69.3345 81.5573 68.0676 83.7867 65.6434C84.3278 65.0565 84.8259 64.4073 85.3032 63.732H9.82656L10.3928 67.2819ZM9.03642 55.6578H86.9529C87.6254 55.6578 88.2503 55.8387 88.8086 56.1308C90.5327 49.7779 90.1509 42.232 86.7713 35.6031C85.955 34.0074 84.7248 32.6551 83.2873 31.5953L53.3931 9.57043C45.5358 3.79619 36.0461 0.665527 26.2885 0.665527H2.62427C1.12556 0.665527 -0.0177192 2.00568 0.218355 3.48559L8.54687 55.7072C8.70912 55.6873 8.86873 55.6578 9.03642 55.6578ZM26.7643 41.6531C26.7643 42.1003 26.4019 42.4628 25.9547 42.4628H14.1116C13.6644 42.4628 13.3019 42.1003 13.3019 41.6531V39.7565C13.3019 39.3093 13.6644 38.9468 14.1116 38.9468H25.9548C26.4019 38.9468 26.7645 39.3093 26.7645 39.7565L26.7643 41.6531ZM26.2885 6.75652C34.7914 6.75652 42.9167 9.42436 49.7873 14.4798L69.0346 28.6596H10.4033L6.90718 6.75652H26.2885ZM86.9529 57.5652H9.03677C7.86062 57.5652 6.90718 58.5187 6.90718 59.6948C6.90718 60.871 7.86062 61.8244 9.03677 61.8244H86.953C88.1292 61.8244 89.0826 60.871 89.0826 59.6948C89.0826 58.5187 88.129 57.5652 86.9529 57.5652Z"/>
</symbol><symbol viewBox="0 -14.14 122.88 122.88" style="enable-background:new 0 0 122.88 94.59" xml:space="preserve" id="engine" xmlns="http://www.w3.org/2000/svg">
    <g>
        <path class="bst0" d="M43.58,92.2L31.9,80.53h-8.04c-2.81,0-5.11-2.3-5.11-5.11v-8.7h-4.87V76.9c0,2.17-1.78,3.95-3.95,3.95H3.95 C1.78,80.85,0,79.07,0,76.9V42.4c0-2.17,1.78-3.95,3.95-3.95h5.98c2.17,0,3.95,1.78,3.95,3.95v10.18h4.87v-9.36 c0-2.81,2.3-5.11,5.11-5.11h8.54l12.07-12.83c1.4-1.22,3.26-1.65,5.43-1.56h49.73c1.72,0.19,3.03,0.85,3.83,2.09 c0.8,1.22,0.67,1.91,0.67,3.28v23.49H109V42.4c0-2.17,1.78-3.95,3.95-3.95h5.98c2.17,0,3.95,1.78,3.95,3.95v34.5 c0,2.17-1.78,3.95-3.95,3.95h-5.98c-2.17,0-3.95-1.78-3.95-3.95V66.72h-4.87v0.92c0,2.73,0.08,4.38-1.66,6.64 c-0.33,0.43-0.7,0.84-1.11,1.22L83.53,92.96c-0.89,0.99-2.24,1.53-4.02,1.63h-30.4C46.84,94.49,44.99,93.71,43.58,92.2L43.58,92.2z M63.71,61.78l-12.64-1.19l10.48-22.96h14.33l-8.13,13.17l14.62,1.62L55.53,84.64L63.71,61.78L63.71,61.78z M51.98,0h34.5 c2.17,0,3.95,1.78,3.95,3.95v5.98c0,2.17-1.78,3.95-3.95,3.95H76.3v5.03H62.16v-5.03H51.98c-2.17,0-3.95-1.78-3.95-3.95V3.95 C48.03,1.78,49.81,0,51.98,0L51.98,0z"/>
    </g>
</symbol><symbol viewBox="0 0 24 25" id="heart" xmlns="http://www.w3.org/2000/svg">
    <path fill-rule="evenodd" clip-rule="evenodd" d="M12.6924 7.58373C12.3055 7.95505 11.6945 7.95505 11.3076 7.58373L10.6152 6.91927C9.80477 6.14154 8.70994 5.66667 7.5 5.66667C5.01472 5.66667 3 7.68139 3 10.1667C3 12.5493 4.28979 14.5167 6.15176 16.1332C8.01532 17.7511 10.2434 18.8241 11.5746 19.3717C11.853 19.4862 12.147 19.4862 12.4254 19.3717C13.7566 18.8241 15.9847 17.7511 17.8482 16.1332C19.7102 14.5167 21 12.5493 21 10.1667C21 7.68139 18.9853 5.66667 16.5 5.66667C15.2901 5.66667 14.1952 6.14154 13.3848 6.91927L12.6924 7.58373ZM12 5.47624C10.8321 4.35548 9.24649 3.66667 7.5 3.66667C3.91015 3.66667 1 6.57682 1 10.1667C1 16.5349 7.97034 20.0517 10.8138 21.2214C11.5796 21.5364 12.4204 21.5364 13.1862 21.2214C16.0297 20.0517 23 16.5349 23 10.1667C23 6.57682 20.0899 3.66667 16.5 3.66667C14.7535 3.66667 13.1679 4.35548 12 5.47624Z"/>
</symbol><symbol viewBox="0 0 24 24" id="heart-line" xmlns="http://www.w3.org/2000/svg">
    <path d="M12.001 4.52853C14.35 2.42 17.98 2.49 20.2426 4.75736C22.5053 7.02472 22.583 10.637 20.4786 12.993L11.9999 21.485L3.52138 12.993C1.41705 10.637 1.49571 7.01901 3.75736 4.75736C6.02157 2.49315 9.64519 2.41687 12.001 4.52853ZM18.827 6.1701C17.3279 4.66794 14.9076 4.60701 13.337 6.01687L12.0019 7.21524L10.6661 6.01781C9.09098 4.60597 6.67506 4.66808 5.17157 6.17157C3.68183 7.66131 3.60704 10.0473 4.97993 11.6232L11.9999 18.6543L19.0201 11.6232C20.3935 10.0467 20.319 7.66525 18.827 6.1701Z"/>
</symbol><symbol viewBox="0 0 24 24" id="id-card-line" xmlns="http://www.w3.org/2000/svg">
    <path d="M3 6H21V18H3V6ZM2 4C1.44772 4 1 4.44772 1 5V19C1 19.5523 1.44772 20 2 20H22C22.5523 20 23 19.5523 23 19V5C23 4.44772 22.5523 4 22 4H2ZM13 8H19V10H13V8ZM18 12H13V14H18V12ZM10.5 10C10.5 11.3807 9.38071 12.5 8 12.5C6.61929 12.5 5.5 11.3807 5.5 10C5.5 8.61929 6.61929 7.5 8 7.5C9.38071 7.5 10.5 8.61929 10.5 10ZM8 13.5C6.067 13.5 4.5 15.067 4.5 17H11.5C11.5 15.067 9.933 13.5 8 13.5Z"/>
</symbol><symbol viewBox="0 0 24 24" id="search" xmlns="http://www.w3.org/2000/svg">
    <path d="M18.5 18.5L22 22M21 11.5C21 6.25329 16.7467 2 11.5 2C6.25329 2 2 6.25329 2 11.5C2 16.7467 6.25329 21 11.5 21C16.7467 21 21 16.7467 21 11.5Z" stroke-width="1.5" stroke-linecap="round" stroke-linejoin="round"/>
</symbol><symbol viewBox="0 0 24 24" id="search-line" xmlns="http://www.w3.org/2000/svg">
    <path d="M18.031 16.6168L22.3137 20.8995L20.8995 22.3137L16.6168 18.031C15.0769 19.263 13.124 20 11 20C6.032 20 2 15.968 2 11C2 6.032 6.032 2 11 2C15.968 2 20 6.032 20 11C20 13.124 19.263 15.0769 18.031 16.6168ZM16.0247 15.8748C17.2475 14.6146 18 12.8956 18 11C18 7.1325 14.8675 4 11 4C7.1325 4 4 7.1325 4 11C4 14.8675 7.1325 18 11 18C12.8956 18 14.6146 17.2475 15.8748 16.0247L16.0247 15.8748Z"/>
</symbol><symbol viewBox="0 0 62 62" id="seat" xmlns="http://www.w3.org/2000/svg">
    <path d="M29.9999 41.2C29.9999 41.043 29.9999 40.887 29.9839 40.729L28.3419 17.929C28.2261 16.3246 27.5082 14.8233 26.3321 13.7259C25.1559 12.6286 23.6085 12.0164 21.9999 12.012H19.9999V9.94799C20.5247 9.87235 21.0254 9.6785 21.4643 9.38105C21.9032 9.0836 22.2687 8.69033 22.5334 8.23094C22.798 7.77154 22.9549 7.25803 22.992 6.72916C23.0292 6.20029 22.9457 5.66988 22.7479 5.17799L21.6709 2.48599C21.3795 1.75086 20.8734 1.12054 20.2186 0.677122C19.5639 0.233706 18.7907 -0.00225061 17.9999 -1.40724e-05H11.9999C11.2088 -0.00229975 10.4352 0.233726 9.78009 0.677319C9.12495 1.12091 8.61858 1.75151 8.32694 2.48699L7.25094 5.17999C7.05351 5.67185 6.97036 6.20213 7.00778 6.73081C7.04519 7.2595 7.20218 7.77278 7.46691 8.23194C7.73164 8.6911 8.09719 9.08414 8.53598 9.38141C8.97477 9.67867 9.47535 9.87241 9.99994 9.94799V12.012H7.99994C6.39155 12.0164 4.84424 12.6285 3.66812 13.7256C2.492 14.8227 1.77397 16.3238 1.65794 17.928L0.0159404 40.728C-5.96289e-05 40.887 -5.96603e-05 41.043 -5.96603e-05 41.2C0.00150918 42.2747 0.258142 43.3336 0.748736 44.2898C1.23933 45.2459 1.94987 46.072 2.82194 46.7C1.78694 47.2768 0.965893 48.1724 0.481012 49.2535C-0.00386906 50.3347 -0.126652 51.5435 0.13094 52.7L1.37294 58.289C1.60212 59.3441 2.1868 60.2885 3.02911 60.9641C3.87141 61.6396 4.92021 62.0053 5.99994 62H23.9999C25.0798 62.0053 26.1287 61.6394 26.971 60.9637C27.8134 60.2879 28.398 59.3433 28.6269 58.288L29.8689 52.7C30.1265 51.5435 30.0038 50.3347 29.5189 49.2535C29.034 48.1724 28.2129 47.2768 27.1779 46.7C28.05 46.072 28.7606 45.2459 29.2511 44.2898C29.7417 43.3336 29.9984 42.2747 29.9999 41.2ZM21.9999 41.2C21.3947 41.7108 20.6299 41.9938 19.8379 42H10.1619C9.36999 41.9938 8.60516 41.7108 7.99994 41.2V41.136C7.99994 39.761 7.96194 38.381 7.93694 37.003H22.0629C22.0379 38.378 21.9999 39.758 21.9999 41.133V41.2ZM22.0929 35H7.90694C7.82627 32 7.68461 29 7.48194 26H22.5179C22.3199 29 22.1783 32 22.0929 35ZM7.99994 43.538C8.68083 43.8401 9.41705 43.9974 10.1619 44H19.8379C20.5828 43.9974 21.3191 43.8401 21.9999 43.538V46H7.99994V43.538ZM8.99994 6.48399C9.00018 6.29152 9.03682 6.10083 9.10794 5.92199L10.1849 3.22899C10.3288 2.86535 10.5789 2.55354 10.9027 2.33429C11.2265 2.11503 11.6089 1.99853 11.9999 1.99999H17.9999C18.3908 1.99859 18.7731 2.11514 19.0967 2.33439C19.4203 2.55365 19.6703 2.86543 19.8139 3.22899L20.8909 5.92099C20.9832 6.15088 21.0176 6.39987 20.9912 6.64616C20.9649 6.89245 20.8786 7.12852 20.7398 7.3337C20.601 7.53887 20.4141 7.7069 20.1953 7.82306C19.9765 7.93922 19.7326 7.99997 19.4849 7.99999H10.5149C10.1131 7.99946 9.72794 7.83953 9.4439 7.55531C9.15987 7.27109 9.0002 6.8858 8.99994 6.48399ZM11.9999 9.99999H17.9999V12.012H11.9999V9.99999ZM21.9999 14.012C22.5428 14.0112 23.0809 14.113 23.5859 14.312C23.2069 17.524 22.9119 20.756 22.6689 23.996H7.33094C7.08794 20.756 6.79294 17.524 6.41394 14.312C6.91898 14.113 7.45709 14.0112 7.99994 14.012H21.9999ZM2.01094 40.873L3.65294 18.073C3.71393 17.2191 4.02717 16.4026 4.55294 15.727C5.50832 24.1621 5.99141 32.644 5.99994 41.133V45.919C4.88381 45.7303 3.87027 45.1533 3.13835 44.2898C2.40642 43.4263 2.00321 42.3319 1.99994 41.2C1.99994 41.09 1.99994 40.98 2.01094 40.873ZM26.6749 57.854C26.5425 58.4641 26.2045 59.0101 25.7175 59.4008C25.2306 59.7914 24.6242 60.003 23.9999 60H5.99994C5.37566 60.003 4.7693 59.7914 4.28234 59.4008C3.79539 59.0101 3.4574 58.4641 3.32494 57.854L2.28194 53.16C3.14283 53.7075 4.1417 53.9988 5.16194 54H24.8379C25.8582 53.9988 26.8571 53.7075 27.7179 53.16L26.6749 57.854ZM24.4999 48C25.2148 48.0019 25.912 48.2226 26.4976 48.6326C27.0833 49.0425 27.5294 49.622 27.7759 50.293C27.4804 50.8114 27.0529 51.2424 26.5369 51.5422C26.0209 51.842 25.4347 52 24.8379 52H5.16194C4.56601 51.9991 3.98089 51.8407 3.46584 51.541C2.95079 51.2412 2.52409 50.8107 2.22894 50.293C2.47547 49.622 2.92157 49.0425 3.50724 48.6326C4.09291 48.2226 4.79006 48.0019 5.50494 48H24.4999ZM23.9999 45.919V41.133C24.0086 32.6429 24.4921 24.16 25.4479 15.724C25.9739 16.4002 26.2872 17.2174 26.3479 18.072L27.9899 40.872C27.9979 40.982 28.0009 41.092 28.0009 41.202C27.9972 42.3337 27.5936 43.4278 26.8615 44.2909C26.1294 45.1539 25.1159 45.7306 23.9999 45.919ZM61.9999 41.2C61.9999 41.043 61.9949 40.887 61.9839 40.729L60.3419 17.929C60.2261 16.3246 59.5082 14.8233 58.3321 13.7259C57.1559 12.6286 55.6085 12.0164 53.9999 12.012H51.9999V9.94799C52.5247 9.87235 53.0254 9.6785 53.4643 9.38105C53.9032 9.0836 54.2687 8.69033 54.5334 8.23094C54.798 7.77154 54.9549 7.25803 54.992 6.72916C55.0292 6.20029 54.9457 5.66988 54.7479 5.17799L53.6709 2.48599C53.3795 1.75086 52.8734 1.12054 52.2186 0.677122C51.5639 0.233706 50.7907 -0.00225061 49.9999 -1.40724e-05H43.9999C43.2088 -0.00229975 42.4352 0.233726 41.7801 0.677319C41.125 1.12091 40.6186 1.75151 40.3269 2.48699L39.2509 5.17999C39.0535 5.67185 38.9704 6.20213 39.0078 6.73081C39.0452 7.2595 39.2022 7.77278 39.4669 8.23194C39.7316 8.6911 40.0972 9.08414 40.536 9.38141C40.9748 9.67867 41.4753 9.87241 41.9999 9.94799V12.012H39.9999C38.3916 12.0164 36.8442 12.6285 35.6681 13.7256C34.492 14.8227 33.774 16.3238 33.6579 17.928L32.0159 40.728C32.0049 40.884 31.9999 41.04 31.9999 41.197C32.0015 42.2717 32.2581 43.3306 32.7487 44.2868C33.2393 45.2429 33.9499 46.069 34.8219 46.697C33.7869 47.2738 32.9659 48.1694 32.481 49.2505C31.9961 50.3317 31.8733 51.5404 32.1309 52.697L33.3729 58.286C33.6015 59.3417 34.1859 60.2868 35.0283 60.9629C35.8707 61.6391 36.9198 62.0052 37.9999 62H55.9999C57.0798 62.0053 58.1287 61.6394 58.971 60.9637C59.8134 60.2879 60.398 59.3433 60.6269 58.288L61.8689 52.7C62.1265 51.5435 62.0037 50.3347 61.5189 49.2535C61.034 48.1724 60.2129 47.2768 59.1779 46.7C60.05 46.072 60.7606 45.2459 61.2511 44.2898C61.7417 43.3336 61.9984 42.2747 61.9999 41.2ZM53.9999 41.2C53.3947 41.7108 52.6299 41.9938 51.8379 42H42.1619C41.37 41.9938 40.6052 41.7108 39.9999 41.2V41.136C39.9999 39.761 39.9619 38.381 39.9369 37.003H54.0629C54.0379 38.378 53.9999 39.758 53.9999 41.133V41.2ZM54.0929 35H39.9069C39.8263 32 39.6846 29 39.4819 26H54.5179C54.3199 29 54.1783 32 54.0929 35ZM39.9999 43.538C40.6808 43.8401 41.417 43.9974 42.1619 44H51.8379C52.5828 43.9974 53.3191 43.8401 53.9999 43.538V46H39.9999V43.538ZM40.9999 6.48399C41.0002 6.29152 41.0368 6.10083 41.1079 5.92199L42.1849 3.22899C42.3288 2.86535 42.5789 2.55354 42.9027 2.33429C43.2265 2.11503 43.6089 1.99853 43.9999 1.99999H49.9999C50.3908 1.99859 50.7731 2.11514 51.0967 2.33439C51.4203 2.55365 51.6703 2.86543 51.8139 3.22899L52.8909 5.92099C52.9831 6.15088 53.0176 6.39987 52.9912 6.64616C52.9649 6.89245 52.8786 7.12852 52.7398 7.3337C52.601 7.53887 52.4141 7.7069 52.1953 7.82306C51.9765 7.93922 51.7326 7.99997 51.4849 7.99999H42.5149C42.1131 7.99946 41.7279 7.83953 41.4439 7.55531C41.1599 7.27109 41.0002 6.8858 40.9999 6.48399ZM43.9999 9.99999H49.9999V12.012H43.9999V9.99999ZM53.9999 14.012C54.5428 14.0112 55.0809 14.113 55.5859 14.312C55.2069 17.524 54.9119 20.756 54.6689 23.996H39.3309C39.0879 20.756 38.7929 17.524 38.4139 14.312C38.919 14.113 39.4571 14.0112 39.9999 14.012H53.9999ZM34.0109 40.873L35.6529 18.073C35.7139 17.2191 36.0272 16.4026 36.5529 15.727C37.5083 24.1621 37.9914 32.644 37.9999 41.133V45.919C36.8838 45.7303 35.8703 45.1533 35.1383 44.2898C34.4064 43.4263 34.0032 42.3319 33.9999 41.2C33.9999 41.09 33.9999 40.98 34.0109 40.873ZM58.6749 57.854C58.5425 58.4641 58.2045 59.0101 57.7175 59.4008C57.2306 59.7914 56.6242 60.003 55.9999 60H37.9999C37.3757 60.003 36.7693 59.7914 36.2823 59.4008C35.7954 59.0101 35.4574 58.4641 35.3249 57.854L34.2819 53.16C35.1428 53.7075 36.1417 53.9988 37.1619 54H56.8379C57.8582 53.9988 58.857 53.7075 59.7179 53.16L58.6749 57.854ZM56.4999 48C57.2148 48.0019 57.912 48.2226 58.4976 48.6326C59.0833 49.0425 59.5294 49.622 59.7759 50.293C59.4804 50.8114 59.0529 51.2424 58.5369 51.5422C58.0209 51.842 57.4347 52 56.8379 52H37.1619C36.566 51.9991 35.9809 51.8407 35.4658 51.541C34.9508 51.2412 34.5241 50.8107 34.2289 50.293C34.4755 49.622 34.9216 49.0425 35.5072 48.6326C36.0929 48.2226 36.7901 48.0019 37.5049 48H56.4999ZM55.9999 45.919V41.133C56.0086 32.6429 56.4921 24.16 57.4479 15.724C57.9739 16.4002 58.2872 17.2174 58.3479 18.072L59.9899 40.872C59.9979 40.982 60.0009 41.092 60.0009 41.202C59.9972 42.3337 59.5936 43.4278 58.8615 44.2909C58.1294 45.1539 57.1159 45.7306 55.9999 45.919Z"/>
</symbol><symbol viewBox="0 0 24 24" id="transmission" xmlns="http://www.w3.org/2000/svg">
    <path fill-rule="evenodd" clip-rule="evenodd" d="M4 2.75C3.30964 2.75 2.75 3.30964 2.75 4C2.75 4.69036 3.30964 5.25 4 5.25C4.69036 5.25 5.25 4.69036 5.25 4C5.25 3.30964 4.69036 2.75 4 2.75ZM1.25 4C1.25 2.48122 2.48122 1.25 4 1.25C5.51878 1.25 6.75 2.48122 6.75 4C6.75 5.51878 5.51878 6.75 4 6.75C2.48122 6.75 1.25 5.51878 1.25 4ZM4 18.75C3.30964 18.75 2.75 19.3096 2.75 20C2.75 20.6904 3.30964 21.25 4 21.25C4.69036 21.25 5.25 20.6904 5.25 20C5.25 19.3096 4.69036 18.75 4 18.75ZM1.25 20C1.25 18.4812 2.48122 17.25 4 17.25C5.51878 17.25 6.75 18.4812 6.75 20C6.75 21.5188 5.51878 22.75 4 22.75C2.48122 22.75 1.25 21.5188 1.25 20ZM12 18.75C11.3096 18.75 10.75 19.3096 10.75 20C10.75 20.6904 11.3096 21.25 12 21.25C12.6904 21.25 13.25 20.6904 13.25 20C13.25 19.3096 12.6904 18.75 12 18.75ZM9.25 20C9.25 18.4812 10.4812 17.25 12 17.25C13.5188 17.25 14.75 18.4812 14.75 20C14.75 21.5188 13.5188 22.75 12 22.75C10.4812 22.75 9.25 21.5188 9.25 20ZM12 2.75C11.3096 2.75 10.75 3.30964 10.75 4C10.75 4.69036 11.3096 5.25 12 5.25C12.6904 5.25 13.25 4.69036 13.25 4C13.25 3.30964 12.6904 2.75 12 2.75ZM9.25 4C9.25 2.48122 10.4812 1.25 12 1.25C13.5188 1.25 14.75 2.48122 14.75 4C14.75 5.51878 13.5188 6.75 12 6.75C10.4812 6.75 9.25 5.51878 9.25 4ZM20 2.75C19.3096 2.75 18.75 3.30964 18.75 4C18.75 4.69036 19.3096 5.25 20 5.25C20.6904 5.25 21.25 4.69036 21.25 4C21.25 3.30964 20.6904 2.75 20 2.75ZM17.25 4C17.25 2.48122 18.4812 1.25 20 1.25C21.5188 1.25 22.75 2.48122 22.75 4C22.75 5.51878 21.5188 6.75 20 6.75C18.4812 6.75 17.25 5.51878 17.25 4Z"/>
    <path fill-rule="evenodd" clip-rule="evenodd" d="M12 5.25C12.4142 5.25 12.75 5.58579 12.75 6V13C12.75 13.4142 12.4142 13.75 12 13.75C11.5858 13.75 11.25 13.4142 11.25 13V6C11.25 5.58579 11.5858 5.25 12 5.25ZM12 15.25C12.4142 15.25 12.75 15.5858 12.75 16V18C12.75 18.4142 12.4142 18.75 12 18.75C11.5858 18.75 11.25 18.4142 11.25 18V16C11.25 15.5858 11.5858 15.25 12 15.25ZM4 18.75C4.41421 18.75 4.75 18.4142 4.75 18V11C4.75 10.5858 4.41421 10.25 4 10.25C3.58579 10.25 3.25 10.5858 3.25 11V18C3.25 18.4142 3.58579 18.75 4 18.75ZM4 8.75C4.41421 8.75 4.75 8.41421 4.75 8V6C4.75 5.58579 4.41421 5.25 4 5.25C3.58579 5.25 3.25 5.58579 3.25 6V8C3.25 8.41421 3.58579 8.75 4 8.75Z"/>
    <path fill-rule="evenodd" clip-rule="evenodd" d="M20 5.25C20.4142 5.25 20.75 5.58579 20.75 6V8.05199C20.75 8.95048 20.7501 9.6997 20.6701 10.2945C20.5857 10.9223 20.4 11.4891 19.9445 11.9445C19.4891 12.4 18.9223 12.5857 18.2945 12.6701C17.6997 12.7501 16.9505 12.75 16.052 12.75H10C9.58579 12.75 9.25 12.4142 9.25 12C9.25 11.5858 9.58579 11.25 10 11.25H16C16.964 11.25 17.6116 11.2484 18.0946 11.1835C18.5561 11.1214 18.7536 11.0142 18.8839 10.8839C19.0142 10.7536 19.1214 10.5561 19.1835 10.0946C19.2484 9.61157 19.25 8.96401 19.25 8V6C19.25 5.58579 19.5858 5.25 20 5.25ZM3.25 12C3.25 11.5858 3.58579 11.25 4 11.25H6C6.41421 11.25 6.75 11.5858 6.75 12C6.75 12.4142 6.41421 12.75 6 12.75H4C3.58579 12.75 3.25 12.4142 3.25 12ZM17.25 15C17.25 14.5858 17.5858 14.25 18 14.25H20.2857C21.6612 14.25 22.75 15.3839 22.75 16.75C22.75 17.8285 22.0713 18.7624 21.1086 19.1077L22.6396 21.6084C22.8559 21.9616 22.7449 22.4234 22.3916 22.6396C22.0384 22.8559 21.5766 22.7449 21.3604 22.3916L19.4369 19.25H18.75V22C18.75 22.4142 18.4142 22.75 18 22.75C17.5858 22.75 17.25 22.4142 17.25 22V15ZM18.75 17.75H20.2857C20.8038 17.75 21.25 17.3169 21.25 16.75C21.25 16.1831 20.8038 15.75 20.2857 15.75H18.75V17.75Z"/>
</symbol><symbol viewBox="0 0 24 24" id="user" xmlns="http://www.w3.org/2000/svg">
    <path d="M18.5588 19.5488C17.5654 16.8918 15.0036 15 12 15C8.99638 15 6.4346 16.8918 5.44117 19.5488M18.5588 19.5488C20.6672 17.7154 22 15.0134 22 12C22 6.47715 17.5228 2 12 2C6.47715 2 2 6.47715 2 12C2 15.0134 3.33285 17.7154 5.44117 19.5488M18.5588 19.5488C16.8031 21.0756 14.5095 22 12 22C9.49052 22 7.19694 21.0756 5.44117 19.5488M15 9C15 10.6569 13.6569 12 12 12C10.3431 12 9 10.6569 9 9C9 7.34315 10.3431 6 12 6C13.6569 6 15 7.34315 15 9Z" stroke-width="1.5" stroke-linejoin="round"/>
</symbol><symbol viewBox="0 0 24 24" id="user-star-line" xmlns="http://www.w3.org/2000/svg">
    <path d="M12 14V16C8.68629 16 6 18.6863 6 22H4C4 17.5817 7.58172 14 12 14ZM12 13C8.685 13 6 10.315 6 7C6 3.685 8.685 1 12 1C15.315 1 18 3.685 18 7C18 10.315 15.315 13 12 13ZM12 11C14.21 11 16 9.21 16 7C16 4.79 14.21 3 12 3C9.79 3 8 4.79 8 7C8 9.21 9.79 11 12 11ZM18 21.5L15.0611 23.0451L15.6224 19.7725L13.2447 17.4549L16.5305 16.9775L18 14L19.4695 16.9775L22.7553 17.4549L20.3776 19.7725L20.9389 23.0451L18 21.5Z"/>
</symbol><symbol viewBox="0 0 56 36" id="users" xmlns="http://www.w3.org/2000/svg">
    <path d="M37.8637 15.0938C41.9324 15.0938 45.2617 11.824 45.2617 7.82813C45.2617 3.8324 41.9324 0.5625 37.8637 0.5625C33.795 0.5625 30.466 3.8324 30.466 7.82813C30.466 11.824 33.795 15.0938 37.8637 15.0938ZM18.1363 15.0938C22.205 15.0938 25.534 11.824 25.534 7.82813C25.534 3.8324 22.205 0.5625 18.1363 0.5625C14.0676 0.5625 10.7383 3.8324 10.7383 7.82813C10.7383 11.824 14.0676 15.0938 18.1363 15.0938ZM18.1363 20.4219C12.3408 20.4219 0.874518 23.2068 0.874518 28.8985V35.4375H35.7501V28.8985C35.7501 23.2068 23.9313 20.4219 18.1363 20.4219ZM37.8637 21.7543C37.1245 21.7543 36.6134 21.7543 35.7501 21.875C38.5869 23.9339 39.6252 25.2657 39.6252 28.8985V35.4375H55.1255V28.8985C55.1255 23.2068 43.6592 21.7543 37.8637 21.7543Z"/>
</symbol><symbol id="website" enable-background="new 0 0 497 497" viewBox="0 0 497 497" xmlns="http://www.w3.org/2000/svg">
    <g>
        <path d="m497 128.5v312c0 11.046-8.954 20-20 20h-457c-11.046 0-20-8.954-20-20v-312z"/>
        <g>
            <path d="m290.498 294.5c0-23.196-18.804-42-42-42-7.031 0-13.659 1.728-19.482 4.782-13.386 7.021-19.327 21.053-19.327 37.218 0 23.196 15.613 36.457 38.809 36.457 16.214 0 30.282-3.645 37.282-17.099 3.014-5.792 4.718-12.376 4.718-19.358z"/>
            <path d="m286.468 312.47c-6.73 14.21-21.2 24.03-37.97 24.03-23.2 0-42-18.8-42-42 0-16.77 9.82-31.24 24.03-37.97-2.59 5.45-4.03 11.54-4.03 17.97 0 23.2 18.8 42 42 42 6.43 0 12.52-1.44 17.97-4.03z"/>
        </g>
        <g>
            <path d="m429.496 294.5c0-23.196-18.804-42-42-42-7.031 0-13.659 1.728-19.482 4.782-13.386 7.021-19.327 21.053-19.327 37.218 0 23.196 15.613 36.457 38.809 36.457 16.214 0 30.282-3.645 37.282-17.099 3.014-5.792 4.718-12.376 4.718-19.358z"/>
            <path d="m425.466 312.47c-6.73 14.21-21.2 24.03-37.97 24.03-23.2 0-42-18.8-42-42 0-16.77 9.82-31.24 24.03-37.97-2.59 5.45-4.03 11.54-4.03 17.97 0 23.2 18.8 42 42 42 6.43 0 12.52-1.44 17.97-4.03z"/>
        </g>
        <path d="m497 148.5v-20l-276.011-12.798-220.989 12.798v20 292c0 11.046 8.954 20 20 20h15c-8.28 0-15-6.72-15-15v-291c0-3.314 2.686-6 6-6z"/>
        <g>
            <path d="m497 56.5v72.5h-497v-72.5c0-11.046 8.954-20 20-20h457c11.046 0 20 8.954 20 20z"/>
            <g>
                <path d="m227.758 108.5c-8.255 0-14.947-6.716-14.947-15s6.692-15 14.947-15h208.315c8.255 0 14.947 6.716 14.947 15s-6.692 15-14.947 15z"/>
                <ellipse cx="160.869" cy="93.5" rx="14.947" ry="15"/>
                <path d="m171.361 104.184 12.874-12.869-13.139 1.179z"/>
                <path d="m150.592 82.608 12.562-12.516-2.693 10.408z"/>
                <ellipse cx="98.034" cy="93.5" rx="14.947" ry="15"/>
                <path d="m108.553 104.157 12.382-12.499-12.674.836z"/>
                <path d="m87.757 82.608 12.371-12.459-2.502 10.351z"/>
                <ellipse cx="32.947" cy="93.5" rx="14.947" ry="15"/>
                <path d="m43.769 103.846 12.721-13.186-13.139 1.381z"/>
                <path d="m22.67 82.608 11.622-12.038-1.753 9.93z"/>
            </g>
            <ellipse cx="173.849" cy="80.5" rx="14.947" ry="15"/>
            <path d="m217.514 82.577 12.971-12.991-3.025 14.276z"/>
            <path d="m446.83 103.915 13.149-13.179-10.185 3.381z"/>
            <ellipse cx="110.946" cy="80.5" rx="14.947" ry="15"/>
            <ellipse cx="45.495" cy="80.5" rx="14.947" ry="15"/>
            <path d="m240.737 95.5c-8.255 0-14.947-6.716-14.947-15s6.692-15 14.947-15h208.315c8.255 0 14.947 6.716 14.947 15s-6.692 15-14.947 15z"/>
        </g>
        <path d="m135.893 215 226.628 2c5.523 0 10-4.477 10-10l3.479-7v-30c0-5.523-4.477-10-10-10h-224l-6.107 5c-5.523 0-10 4.477-10 10v30c0 5.523 4.477 10 10 10z"/>
        <path d="m376 200v10c0 5.523-4.477 10-10 10h-234c-5.523 0-10-4.477-10-10v-40c0-5.523 4.477-10 10-10h10v33c0 3.866 3.134 7 7 7z"/>
        <g>
            <path d="m151.5 294.5c0-23.196-18.804-42-42-42-7.031 0-13.659 1.728-19.482 4.782-13.386 7.021-19.327 21.053-19.327 37.218 0 23.196 15.613 36.457 38.809 36.457 16.214 0 30.282-3.645 37.282-17.099 3.014-5.792 4.718-12.376 4.718-19.358z"/>
            <path d="m147.47 312.47c-6.73 14.21-21.2 24.03-37.97 24.03-23.2 0-42-18.8-42-42 0-16.77 9.82-31.24 24.03-37.97-2.59 5.45-4.03 11.54-4.03 17.97 0 23.2 18.8 42 42 42 6.43 0 12.52-1.44 17.97-4.03z"/>
        </g>
        <g>
            <g>
                <path d="m149.5 374h-70c-4.142 0-7.5-3.358-7.5-7.5s3.358-7.5 7.5-7.5h70c4.142 0 7.5 3.358 7.5 7.5s-3.358 7.5-7.5 7.5z"/>
            </g>
            <g>
                <path d="m149.5 404h-80c-4.142 0-7.5-3.358-7.5-7.5s3.358-7.5 7.5-7.5h80c4.142 0 7.5 3.358 7.5 7.5s-3.358 7.5-7.5 7.5z"/>
            </g>
            <g>
                <path d="m149.5 434h-80c-4.142 0-7.5-3.358-7.5-7.5s3.358-7.5 7.5-7.5h80c4.142 0 7.5 3.358 7.5 7.5s-3.358 7.5-7.5 7.5z"/>
            </g>
        </g>
        <g>
            <g>
                <path d="m288.5 374h-70c-4.142 0-7.5-3.358-7.5-7.5s3.358-7.5 7.5-7.5h70c4.143 0 7.5 3.358 7.5 7.5s-3.357 7.5-7.5 7.5z"/>
            </g>
            <g>
                <path d="m288.5 404h-80c-4.142 0-7.5-3.358-7.5-7.5s3.358-7.5 7.5-7.5h80c4.143 0 7.5 3.358 7.5 7.5s-3.357 7.5-7.5 7.5z"/>
            </g>
            <g>
                <path d="m288.5 434h-80c-4.142 0-7.5-3.358-7.5-7.5s3.358-7.5 7.5-7.5h80c4.143 0 7.5 3.358 7.5 7.5s-3.357 7.5-7.5 7.5z"/>
            </g>
        </g>
        <g>
            <g>
                <path d="m427.5 374h-70c-4.143 0-7.5-3.358-7.5-7.5s3.357-7.5 7.5-7.5h70c4.143 0 7.5 3.358 7.5 7.5s-3.357 7.5-7.5 7.5z"/>
            </g>
            <g>
                <path d="m427.5 404h-80c-4.143 0-7.5-3.358-7.5-7.5s3.357-7.5 7.5-7.5h80c4.143 0 7.5 3.358 7.5 7.5s-3.357 7.5-7.5 7.5z"/>
            </g>
            <g>
                <path d="m427.5 434h-80c-4.143 0-7.5-3.358-7.5-7.5s3.357-7.5 7.5-7.5h80c4.143 0 7.5 3.358 7.5 7.5s-3.357 7.5-7.5 7.5z"/>
            </g>
        </g>
    </g>
</symbol></svg>