<?xml version="1.0" encoding="utf-8"?><svg viewBox="0 0 512 512" xmlns="http://www.w3.org/2000/svg" xmlns:xlink="http://www.w3.org/1999/xlink"><style>:root>svg{display:none}:root>svg:target{display:block}</style><svg fill="none" viewBox="0 0 90 70" id="door" xmlns="http://www.w3.org/2000/svg">
    <path d="M10.393 67.282a2.436 2.436 0 0 0 2.406 2.053h62.253c3.29 0 6.505-1.267 8.735-3.692a18.931 18.931 0 0 0 1.516-1.911H9.827l.566 3.55ZM9.036 55.658h77.917c.672 0 1.297.18 1.856.473 1.724-6.353 1.342-13.899-2.038-20.528-.816-1.596-2.046-2.948-3.484-4.008L53.393 9.57A45.773 45.773 0 0 0 26.288.666H2.624a2.436 2.436 0 0 0-2.406 2.82l8.329 52.221c.162-.02.322-.05.49-.05Zm17.728-14.005a.81.81 0 0 1-.81.81H14.113a.81.81 0 0 1-.81-.81v-1.896a.81.81 0 0 1 .81-.81h11.843a.81.81 0 0 1 .81.81v1.896Zm-.476-34.896c8.503 0 16.629 2.667 23.5 7.723l19.247 14.18H10.403L6.907 6.757h19.381Zm60.665 50.808H9.037a2.13 2.13 0 0 0 0 4.26h77.916a2.13 2.13 0 1 0 0-4.26Z" fill="#000"/>
</svg><svg viewBox="0 -14.14 122.88 122.88" style="enable-background:new 0 0 122.88 94.59" xml:space="preserve" id="engine" xmlns="http://www.w3.org/2000/svg">
    <path class="bst0" d="M43.58 92.2 31.9 80.53h-8.04c-2.81 0-5.11-2.3-5.11-5.11v-8.7h-4.87V76.9c0 2.17-1.78 3.95-3.95 3.95H3.95C1.78 80.85 0 79.07 0 76.9V42.4c0-2.17 1.78-3.95 3.95-3.95h5.98c2.17 0 3.95 1.78 3.95 3.95v10.18h4.87v-9.36c0-2.81 2.3-5.11 5.11-5.11h8.54l12.07-12.83c1.4-1.22 3.26-1.65 5.43-1.56h49.73c1.72.19 3.03.85 3.83 2.09.8 1.22.67 1.91.67 3.28v23.49H109V42.4c0-2.17 1.78-3.95 3.95-3.95h5.98c2.17 0 3.95 1.78 3.95 3.95v34.5c0 2.17-1.78 3.95-3.95 3.95h-5.98c-2.17 0-3.95-1.78-3.95-3.95V66.72h-4.87v.92c0 2.73.08 4.38-1.66 6.64-.33.43-.7.84-1.11 1.22L83.53 92.96c-.89.99-2.24 1.53-4.02 1.63h-30.4c-2.27-.1-4.12-.88-5.53-2.39zm20.13-30.42-12.64-1.19 10.48-22.96h14.33L67.75 50.8l14.62 1.62-26.84 32.22 8.18-22.86zM51.98 0h34.5c2.17 0 3.95 1.78 3.95 3.95v5.98c0 2.17-1.78 3.95-3.95 3.95H76.3v5.03H62.16v-5.03H51.98c-2.17 0-3.95-1.78-3.95-3.95V3.95c0-2.17 1.78-3.95 3.95-3.95z"/>
</svg><svg fill="none" viewBox="0 0 24 25" id="heart" xmlns="http://www.w3.org/2000/svg">
    <path fill-rule="evenodd" clip-rule="evenodd" d="M12.692 7.584a1 1 0 0 1-1.384 0l-.693-.665A4.5 4.5 0 0 0 3 10.166c0 2.383 1.29 4.35 3.152 5.967 1.863 1.618 4.091 2.691 5.423 3.239.278.114.572.114.85 0 1.332-.548 3.56-1.62 5.423-3.239C19.71 14.517 21 12.55 21 10.167a4.5 4.5 0 0 0-7.615-3.248l-.693.665ZM12 5.476a6.5 6.5 0 0 0-11 4.69c0 6.369 6.97 9.886 9.814 11.055a3.096 3.096 0 0 0 2.372 0C16.03 20.051 23 16.535 23 10.167a6.5 6.5 0 0 0-11-4.69Z" fill="#141718"/>
</svg><svg fill="none" viewBox="0 0 24 24" id="heart-line" xmlns="http://www.w3.org/2000/svg">
    <path d="M12.001 4.529a5.998 5.998 0 0 1 8.242.228 6 6 0 0 1 .236 8.236l-8.48 8.492-8.478-8.492a6 6 0 0 1 8.48-8.464Zm6.826 1.641a3.998 3.998 0 0 0-5.49-.153l-1.335 1.198-1.336-1.197a4 4 0 0 0-5.686 5.605L12 18.654l7.02-7.03a4 4 0 0 0-.193-5.454Z" fill="#000"/>
</svg><svg fill="none" viewBox="0 0 24 24" id="id-card-line" xmlns="http://www.w3.org/2000/svg">
    <path d="M3 6h18v12H3V6ZM2 4a1 1 0 0 0-1 1v14a1 1 0 0 0 1 1h20a1 1 0 0 0 1-1V5a1 1 0 0 0-1-1H2Zm11 4h6v2h-6V8Zm5 4h-5v2h5v-2Zm-7.5-2a2.5 2.5 0 1 1-5 0 2.5 2.5 0 0 1 5 0ZM8 13.5A3.5 3.5 0 0 0 4.5 17h7A3.5 3.5 0 0 0 8 13.5Z" fill="#000"/>
</svg><svg fill="none" viewBox="0 0 24 24" id="search" xmlns="http://www.w3.org/2000/svg">
    <path d="M18.5 18.5 22 22m-1-10.5a9.5 9.5 0 1 0-19 0 9.5 9.5 0 0 0 19 0Z" stroke="#141718" stroke-width="1.5" stroke-linecap="round" stroke-linejoin="round"/>
</svg><svg fill="none" viewBox="0 0 24 24" id="search-line" xmlns="http://www.w3.org/2000/svg">
    <path d="m18.031 16.617 4.283 4.282-1.415 1.415-4.282-4.283A8.96 8.96 0 0 1 11 20c-4.968 0-9-4.032-9-9s4.032-9 9-9 9 4.032 9 9a8.96 8.96 0 0 1-1.969 5.617Zm-2.006-.742A6.977 6.977 0 0 0 18 11c0-3.867-3.133-7-7-7s-7 3.133-7 7 3.133 7 7 7a6.977 6.977 0 0 0 4.875-1.975l.15-.15Z" fill="#000"/>
</svg><svg fill="none" viewBox="0 0 62 62" id="seat" xmlns="http://www.w3.org/2000/svg">
    <path d="M30 41.2c0-.157 0-.313-.016-.471l-1.642-22.8A6.376 6.376 0 0 0 22 12.012h-2V9.948a3.5 3.5 0 0 0 2.748-4.77L21.67 2.486A3.937 3.937 0 0 0 18 0h-6a3.939 3.939 0 0 0-3.673 2.487L7.25 5.18A3.5 3.5 0 0 0 10 9.948v2.064H8a6.376 6.376 0 0 0-6.342 5.916l-1.642 22.8A6.79 6.79 0 0 0 2.822 46.7a5.5 5.5 0 0 0-2.691 6l1.242 5.589A4.711 4.711 0 0 0 6 62h18a4.711 4.711 0 0 0 4.627-3.712l1.242-5.588a5.5 5.5 0 0 0-2.691-6A6.789 6.789 0 0 0 30 41.2Zm-8 0c-.605.51-1.37.794-2.162.8h-9.676A3.393 3.393 0 0 1 8 41.2v-.064c0-1.375-.038-2.755-.063-4.133h14.126c-.025 1.375-.063 2.755-.063 4.13v.067Zm.093-6.2H7.907c-.08-3-.222-6-.425-9h15.036c-.198 3-.34 6-.425 9ZM8 43.538c.68.302 1.417.46 2.162.462h9.676A5.377 5.377 0 0 0 22 43.538V46H8v-2.462ZM9 6.484c0-.192.037-.383.108-.562l1.077-2.693A1.944 1.944 0 0 1 12 2h6a1.943 1.943 0 0 1 1.814 1.229l1.077 2.692A1.513 1.513 0 0 1 19.485 8h-8.97A1.517 1.517 0 0 1 9 6.484ZM12 10h6v2.012h-6V10Zm10 4.012c.543 0 1.08.101 1.586.3a228.522 228.522 0 0 0-.917 9.684H7.33c-.243-3.24-.538-6.472-.917-9.684a4.309 4.309 0 0 1 1.586-.3h14ZM2.01 40.873l1.643-22.8c.06-.854.374-1.67.9-2.346A227.779 227.779 0 0 1 6 41.133v4.786a4.8 4.8 0 0 1-3.99-5.046Zm24.665 16.981A2.724 2.724 0 0 1 24 60H6a2.724 2.724 0 0 1-2.675-2.146L2.282 53.16c.86.548 1.86.839 2.88.84h19.676a5.378 5.378 0 0 0 2.88-.84l-1.043 4.694ZM24.5 48a3.5 3.5 0 0 1 3.276 2.293A3.382 3.382 0 0 1 24.838 52H5.162a3.383 3.383 0 0 1-2.933-1.707A3.5 3.5 0 0 1 5.505 48H24.5Zm-.5-2.081v-4.786a227.77 227.77 0 0 1 1.448-25.409c.526.676.84 1.493.9 2.348l1.642 22.8A4.8 4.8 0 0 1 24 45.919ZM62 41.2c0-.157-.005-.313-.016-.471l-1.642-22.8A6.376 6.376 0 0 0 54 12.012h-2V9.948a3.5 3.5 0 0 0 2.748-4.77L53.67 2.486A3.937 3.937 0 0 0 50 0h-6a3.939 3.939 0 0 0-3.673 2.487L39.25 5.18A3.5 3.5 0 0 0 42 9.948v2.064h-2a6.376 6.376 0 0 0-6.342 5.916l-1.642 22.8a6.79 6.79 0 0 0 2.806 5.969 5.5 5.5 0 0 0-2.691 6l1.242 5.589A4.71 4.71 0 0 0 38 62h18a4.711 4.711 0 0 0 4.627-3.712l1.242-5.588a5.5 5.5 0 0 0-2.691-6A6.789 6.789 0 0 0 62 41.2Zm-8 0c-.605.51-1.37.794-2.162.8h-9.676A3.393 3.393 0 0 1 40 41.2v-.064c0-1.375-.038-2.755-.063-4.133h14.126c-.025 1.375-.063 2.755-.063 4.13v.067Zm.093-6.2H39.907c-.08-3-.222-6-.425-9h15.036c-.198 3-.34 6-.425 9ZM40 43.538c.68.302 1.417.46 2.162.462h9.676A5.377 5.377 0 0 0 54 43.538V46H40v-2.462Zm1-37.054c0-.192.037-.383.108-.562l1.077-2.693A1.944 1.944 0 0 1 44 2h6a1.943 1.943 0 0 1 1.814 1.229l1.077 2.692A1.515 1.515 0 0 1 51.485 8h-8.97A1.517 1.517 0 0 1 41 6.484ZM44 10h6v2.012h-6V10Zm10 4.012c.543 0 1.08.101 1.586.3a228.522 228.522 0 0 0-.917 9.684H39.33c-.243-3.24-.538-6.472-.917-9.684a4.31 4.31 0 0 1 1.586-.3h14ZM34.01 40.873l1.643-22.8c.06-.854.374-1.67.9-2.346A227.767 227.767 0 0 1 38 41.133v4.786a4.8 4.8 0 0 1-4-4.719c0-.11 0-.22.01-.327Zm24.665 16.981A2.724 2.724 0 0 1 56 60H38a2.724 2.724 0 0 1-2.675-2.146l-1.043-4.694c.86.548 1.86.839 2.88.84h19.676a5.378 5.378 0 0 0 2.88-.84l-1.043 4.694ZM56.5 48a3.5 3.5 0 0 1 3.276 2.293A3.382 3.382 0 0 1 56.838 52H37.162a3.383 3.383 0 0 1-2.933-1.707A3.5 3.5 0 0 1 37.505 48H56.5Zm-.5-2.081v-4.786a227.77 227.77 0 0 1 1.448-25.409c.526.676.84 1.493.9 2.348l1.642 22.8A4.8 4.8 0 0 1 56 45.919Z" fill="#000"/>
</svg><svg fill="none" viewBox="0 0 24 24" id="transmission" xmlns="http://www.w3.org/2000/svg">
    <path fill-rule="evenodd" clip-rule="evenodd" d="M4 2.75a1.25 1.25 0 1 0 0 2.5 1.25 1.25 0 0 0 0-2.5ZM1.25 4a2.75 2.75 0 1 1 5.5 0 2.75 2.75 0 0 1-5.5 0ZM4 18.75a1.25 1.25 0 1 0 0 2.5 1.25 1.25 0 0 0 0-2.5ZM1.25 20a2.75 2.75 0 1 1 5.5 0 2.75 2.75 0 0 1-5.5 0ZM12 18.75a1.25 1.25 0 1 0 0 2.5 1.25 1.25 0 0 0 0-2.5ZM9.25 20a2.75 2.75 0 1 1 5.5 0 2.75 2.75 0 0 1-5.5 0ZM12 2.75a1.25 1.25 0 1 0 0 2.5 1.25 1.25 0 0 0 0-2.5ZM9.25 4a2.75 2.75 0 1 1 5.5 0 2.75 2.75 0 0 1-5.5 0ZM20 2.75a1.25 1.25 0 1 0 0 2.5 1.25 1.25 0 0 0 0-2.5ZM17.25 4a2.75 2.75 0 1 1 5.5 0 2.75 2.75 0 0 1-5.5 0Z" fill="#111"/>
    <path fill-rule="evenodd" clip-rule="evenodd" d="M12 5.25a.75.75 0 0 1 .75.75v7a.75.75 0 0 1-1.5 0V6a.75.75 0 0 1 .75-.75Zm0 10a.75.75 0 0 1 .75.75v2a.75.75 0 0 1-1.5 0v-2a.75.75 0 0 1 .75-.75Zm-8 3.5a.75.75 0 0 0 .75-.75v-7a.75.75 0 0 0-1.5 0v7c0 .414.336.75.75.75Zm0-10A.75.75 0 0 0 4.75 8V6a.75.75 0 0 0-1.5 0v2c0 .414.336.75.75.75Z" fill="#111"/>
    <path fill-rule="evenodd" clip-rule="evenodd" d="M20 5.25a.75.75 0 0 1 .75.75v2.052c0 .898 0 1.648-.08 2.242-.084.628-.27 1.195-.726 1.65-.455.456-1.022.642-1.65.726-.594.08-1.343.08-2.242.08H10a.75.75 0 0 1 0-1.5h6c.964 0 1.612-.002 2.095-.066.461-.063.659-.17.789-.3.13-.13.237-.328.3-.79.064-.482.066-1.13.066-2.094V6a.75.75 0 0 1 .75-.75ZM3.25 12a.75.75 0 0 1 .75-.75h2a.75.75 0 0 1 0 1.5H4a.75.75 0 0 1-.75-.75Zm14 3a.75.75 0 0 1 .75-.75h2.286c1.375 0 2.464 1.134 2.464 2.5a2.502 2.502 0 0 1-1.641 2.358l1.53 2.5a.75.75 0 1 1-1.279.784l-1.923-3.142h-.687V22a.75.75 0 0 1-1.5 0v-7Zm1.5 2.75h1.536c.518 0 .964-.433.964-1s-.446-1-.964-1H18.75v2Z" fill="#111"/>
</svg><svg fill="none" viewBox="0 0 24 24" id="user" xmlns="http://www.w3.org/2000/svg">
    <path d="M18.559 19.549a7.003 7.003 0 0 0-13.118 0m13.118 0A9.976 9.976 0 0 0 22 12c0-5.523-4.477-10-10-10S2 6.477 2 12a9.977 9.977 0 0 0 3.441 7.549m13.118 0A9.961 9.961 0 0 1 12 22a9.961 9.961 0 0 1-6.559-2.451M15 9a3 3 0 1 1-6 0 3 3 0 0 1 6 0Z" stroke="#141718" stroke-width="1.5" stroke-linejoin="round"/>
</svg><svg fill="none" viewBox="0 0 24 24" id="user-star-line" xmlns="http://www.w3.org/2000/svg">
    <path d="M12 14v2a6 6 0 0 0-6 6H4a8 8 0 0 1 8-8Zm0-1c-3.315 0-6-2.685-6-6s2.685-6 6-6 6 2.685 6 6-2.685 6-6 6Zm0-2c2.21 0 4-1.79 4-4s-1.79-4-4-4-4 1.79-4 4 1.79 4 4 4Zm6 10.5-2.939 1.545.561-3.273-2.377-2.317 3.286-.477L18 14l1.47 2.977 3.285.478-2.377 2.318.56 3.272L18 21.5Z" fill="#000"/>
</svg><svg fill="none" viewBox="0 0 56 36" id="users" xmlns="http://www.w3.org/2000/svg">
    <path d="M37.864 15.094c4.068 0 7.398-3.27 7.398-7.266S41.932.562 37.864.562c-4.069 0-7.398 3.27-7.398 7.266s3.329 7.266 7.398 7.266Zm-19.728 0c4.069 0 7.398-3.27 7.398-7.266S22.205.562 18.136.562c-4.068 0-7.398 3.27-7.398 7.266s3.33 7.266 7.398 7.266Zm0 5.328c-5.795 0-17.261 2.785-17.261 8.476v6.54H35.75v-6.54c0-5.691-11.819-8.476-17.614-8.476Zm19.728 1.332c-.74 0-1.25 0-2.114.121 2.837 2.059 3.875 3.39 3.875 7.023v6.54h15.5v-6.54c0-5.691-11.466-7.144-17.261-7.144Z" fill="#000"/>
</svg><svg viewBox="0 0 497 497" id="website" xmlns="http://www.w3.org/2000/svg">
    <path d="M497 128.5v312c0 11.046-8.954 20-20 20H20c-11.046 0-20-8.954-20-20v-312z" fill="#faf8f8"/>
    <path d="M290.498 294.5c0-23.196-18.804-42-42-42a41.823 41.823 0 0 0-19.482 4.782c-13.386 7.021-19.327 21.053-19.327 37.218 0 23.196 15.613 36.457 38.809 36.457 16.214 0 30.282-3.645 37.282-17.099a41.814 41.814 0 0 0 4.718-19.358z" fill="#dc4955"/>
    <path d="M286.468 312.47c-6.73 14.21-21.2 24.03-37.97 24.03-23.2 0-42-18.8-42-42 0-16.77 9.82-31.24 24.03-37.97-2.59 5.45-4.03 11.54-4.03 17.97 0 23.2 18.8 42 42 42 6.43 0 12.52-1.44 17.97-4.03z" fill="#d82f3c"/>
    <path d="M429.496 294.5c0-23.196-18.804-42-42-42a41.823 41.823 0 0 0-19.482 4.782c-13.386 7.021-19.327 21.053-19.327 37.218 0 23.196 15.613 36.457 38.809 36.457 16.214 0 30.282-3.645 37.282-17.099a41.814 41.814 0 0 0 4.718-19.358z" fill="#b7e546"/>
    <path d="M425.466 312.47c-6.73 14.21-21.2 24.03-37.97 24.03-23.2 0-42-18.8-42-42 0-16.77 9.82-31.24 24.03-37.97-2.59 5.45-4.03 11.54-4.03 17.97 0 23.2 18.8 42 42 42 6.43 0 12.52-1.44 17.97-4.03z" fill="#abd641"/>
    <path d="M497 148.5v-20l-276.011-12.798L0 128.5v312c0 11.046 8.954 20 20 20h15c-8.28 0-15-6.72-15-15v-291a6 6 0 0 1 6-6z" fill="#f0e9e6"/>
    <path d="M497 56.5V129H0V56.5c0-11.046 8.954-20 20-20h457c11.046 0 20 8.954 20 20z" fill="#5d748a"/>
    <g fill="#3f597d">
        <path d="M227.758 108.5c-8.255 0-14.947-6.716-14.947-15s6.692-15 14.947-15h208.315c8.255 0 14.947 6.716 14.947 15s-6.692 15-14.947 15z"/>
        <ellipse cx="160.869" cy="93.5" rx="14.947" ry="15"/>
        <path d="m171.361 104.184 12.874-12.869-13.139 1.179zM150.592 82.608l12.562-12.516-2.693 10.408z"/>
        <ellipse cx="98.034" cy="93.5" rx="14.947" ry="15"/>
        <path d="m108.553 104.157 12.382-12.499-12.674.836zM87.757 82.608l12.371-12.459L97.626 80.5z"/>
        <ellipse cx="32.947" cy="93.5" rx="14.947" ry="15"/>
        <path d="M43.769 103.846 56.49 90.66l-13.139 1.381zM22.67 82.608 34.292 70.57l-1.753 9.93z"/>
    </g>
    <ellipse cx="173.849" cy="80.5" fill="#b7e546" rx="14.947" ry="15"/>
    <path d="m217.514 82.577 12.971-12.991-3.025 14.276zM446.83 103.915l13.149-13.179-10.185 3.381z" fill="#3f597d"/>
    <ellipse cx="110.946" cy="80.5" fill="#ffbf54" rx="14.947" ry="15"/>
    <ellipse cx="45.495" cy="80.5" fill="#dc4955" rx="14.947" ry="15"/>
    <path d="M240.737 95.5c-8.255 0-14.947-6.716-14.947-15s6.692-15 14.947-15h208.315c8.255 0 14.947 6.716 14.947 15s-6.692 15-14.947 15z" fill="#faf8f8"/>
    <path d="m135.893 215 226.628 2c5.523 0 10-4.477 10-10l3.479-7v-30c0-5.523-4.477-10-10-10H142l-6.107 5c-5.523 0-10 4.477-10 10v30c0 5.523 4.477 10 10 10z" fill="#aad8de"/>
    <path d="M376 200v10c0 5.523-4.477 10-10 10H132c-5.523 0-10-4.477-10-10v-40c0-5.523 4.477-10 10-10h10v33a7 7 0 0 0 7 7z" fill="#94ccd4"/>
    <path d="M151.5 294.5c0-23.196-18.804-42-42-42a41.823 41.823 0 0 0-19.482 4.782c-13.386 7.021-19.327 21.053-19.327 37.218 0 23.196 15.613 36.457 38.809 36.457 16.214 0 30.282-3.645 37.282-17.099A41.814 41.814 0 0 0 151.5 294.5z" fill="#ffbf54"/>
    <path d="M147.47 312.47c-6.73 14.21-21.2 24.03-37.97 24.03-23.2 0-42-18.8-42-42 0-16.77 9.82-31.24 24.03-37.97-2.59 5.45-4.03 11.54-4.03 17.97 0 23.2 18.8 42 42 42 6.43 0 12.52-1.44 17.97-4.03z" fill="#ffa442"/>
    <path d="M149.5 374h-70a7.5 7.5 0 0 1 0-15h70a7.5 7.5 0 0 1 0 15zM149.5 404h-80a7.5 7.5 0 0 1 0-15h80a7.5 7.5 0 0 1 0 15zM149.5 434h-80a7.5 7.5 0 0 1 0-15h80a7.5 7.5 0 0 1 0 15zM288.5 374h-70a7.5 7.5 0 0 1 0-15h70c4.143 0 7.5 3.358 7.5 7.5s-3.357 7.5-7.5 7.5zM288.5 404h-80a7.5 7.5 0 0 1 0-15h80c4.143 0 7.5 3.358 7.5 7.5s-3.357 7.5-7.5 7.5zM288.5 434h-80a7.5 7.5 0 0 1 0-15h80c4.143 0 7.5 3.358 7.5 7.5s-3.357 7.5-7.5 7.5zM427.5 374h-70c-4.143 0-7.5-3.358-7.5-7.5s3.357-7.5 7.5-7.5h70c4.143 0 7.5 3.358 7.5 7.5s-3.357 7.5-7.5 7.5zM427.5 404h-80c-4.143 0-7.5-3.358-7.5-7.5s3.357-7.5 7.5-7.5h80c4.143 0 7.5 3.358 7.5 7.5s-3.357 7.5-7.5 7.5zM427.5 434h-80c-4.143 0-7.5-3.358-7.5-7.5s3.357-7.5 7.5-7.5h80c4.143 0 7.5 3.358 7.5 7.5s-3.357 7.5-7.5 7.5z" fill="#f0e9e6"/>
</svg></svg>