<svg width="90" height="70" viewBox="0 0 90 70" fill="none" xmlns="http://www.w3.org/2000/svg">
<path d="M10.3928 67.2819C10.5814 68.4644 11.6012 69.3345 12.7987 69.3345H75.0523C78.3413 69.3345 81.5573 68.0676 83.7867 65.6434C84.3278 65.0565 84.8259 64.4073 85.3032 63.732H9.82656L10.3928 67.2819ZM9.03642 55.6578H86.9529C87.6254 55.6578 88.2503 55.8387 88.8086 56.1308C90.5327 49.7779 90.1509 42.232 86.7713 35.6031C85.955 34.0074 84.7248 32.6551 83.2873 31.5953L53.3931 9.57043C45.5358 3.79619 36.0461 0.665527 26.2885 0.665527H2.62427C1.12556 0.665527 -0.0177192 2.00568 0.218355 3.48559L8.54687 55.7072C8.70912 55.6873 8.86873 55.6578 9.03642 55.6578ZM26.7643 41.6531C26.7643 42.1003 26.4019 42.4628 25.9547 42.4628H14.1116C13.6644 42.4628 13.3019 42.1003 13.3019 41.6531V39.7565C13.3019 39.3093 13.6644 38.9468 14.1116 38.9468H25.9548C26.4019 38.9468 26.7645 39.3093 26.7645 39.7565L26.7643 41.6531ZM26.2885 6.75652C34.7914 6.75652 42.9167 9.42436 49.7873 14.4798L69.0346 28.6596H10.4033L6.90718 6.75652H26.2885ZM86.9529 57.5652H9.03677C7.86062 57.5652 6.90718 58.5187 6.90718 59.6948C6.90718 60.871 7.86062 61.8244 9.03677 61.8244H86.953C88.1292 61.8244 89.0826 60.871 89.0826 59.6948C89.0826 58.5187 88.129 57.5652 86.9529 57.5652Z" fill="black"/>
</svg>
