<svg width="62" height="62" viewBox="0 0 62 62" fill="none" xmlns="http://www.w3.org/2000/svg">
<path d="M29.9999 41.2C29.9999 41.043 29.9999 40.887 29.9839 40.729L28.3419 17.929C28.2261 16.3246 27.5082 14.8233 26.3321 13.7259C25.1559 12.6286 23.6085 12.0164 21.9999 12.012H19.9999V9.94799C20.5247 9.87235 21.0254 9.6785 21.4643 9.38105C21.9032 9.0836 22.2687 8.69033 22.5334 8.23094C22.798 7.77154 22.9549 7.25803 22.992 6.72916C23.0292 6.20029 22.9457 5.66988 22.7479 5.17799L21.6709 2.48599C21.3795 1.75086 20.8734 1.12054 20.2186 0.677122C19.5639 0.233706 18.7907 -0.00225061 17.9999 -1.40724e-05H11.9999C11.2088 -0.00229975 10.4352 0.233726 9.78009 0.677319C9.12495 1.12091 8.61858 1.75151 8.32694 2.48699L7.25094 5.17999C7.05351 5.67185 6.97036 6.20213 7.00778 6.73081C7.04519 7.2595 7.20218 7.77278 7.46691 8.23194C7.73164 8.6911 8.09719 9.08414 8.53598 9.38141C8.97477 9.67867 9.47535 9.87241 9.99994 9.94799V12.012H7.99994C6.39155 12.0164 4.84424 12.6285 3.66812 13.7256C2.492 14.8227 1.77397 16.3238 1.65794 17.928L0.0159404 40.728C-5.96289e-05 40.887 -5.96603e-05 41.043 -5.96603e-05 41.2C0.00150918 42.2747 0.258142 43.3336 0.748736 44.2898C1.23933 45.2459 1.94987 46.072 2.82194 46.7C1.78694 47.2768 0.965893 48.1724 0.481012 49.2535C-0.00386906 50.3347 -0.126652 51.5435 0.13094 52.7L1.37294 58.289C1.60212 59.3441 2.1868 60.2885 3.02911 60.9641C3.87141 61.6396 4.92021 62.0053 5.99994 62H23.9999C25.0798 62.0053 26.1287 61.6394 26.971 60.9637C27.8134 60.2879 28.398 59.3433 28.6269 58.288L29.8689 52.7C30.1265 51.5435 30.0038 50.3347 29.5189 49.2535C29.034 48.1724 28.2129 47.2768 27.1779 46.7C28.05 46.072 28.7606 45.2459 29.2511 44.2898C29.7417 43.3336 29.9984 42.2747 29.9999 41.2ZM21.9999 41.2C21.3947 41.7108 20.6299 41.9938 19.8379 42H10.1619C9.36999 41.9938 8.60516 41.7108 7.99994 41.2V41.136C7.99994 39.761 7.96194 38.381 7.93694 37.003H22.0629C22.0379 38.378 21.9999 39.758 21.9999 41.133V41.2ZM22.0929 35H7.90694C7.82627 32 7.68461 29 7.48194 26H22.5179C22.3199 29 22.1783 32 22.0929 35ZM7.99994 43.538C8.68083 43.8401 9.41705 43.9974 10.1619 44H19.8379C20.5828 43.9974 21.3191 43.8401 21.9999 43.538V46H7.99994V43.538ZM8.99994 6.48399C9.00018 6.29152 9.03682 6.10083 9.10794 5.92199L10.1849 3.22899C10.3288 2.86535 10.5789 2.55354 10.9027 2.33429C11.2265 2.11503 11.6089 1.99853 11.9999 1.99999H17.9999C18.3908 1.99859 18.7731 2.11514 19.0967 2.33439C19.4203 2.55365 19.6703 2.86543 19.8139 3.22899L20.8909 5.92099C20.9832 6.15088 21.0176 6.39987 20.9912 6.64616C20.9649 6.89245 20.8786 7.12852 20.7398 7.3337C20.601 7.53887 20.4141 7.7069 20.1953 7.82306C19.9765 7.93922 19.7326 7.99997 19.4849 7.99999H10.5149C10.1131 7.99946 9.72794 7.83953 9.4439 7.55531C9.15987 7.27109 9.0002 6.8858 8.99994 6.48399ZM11.9999 9.99999H17.9999V12.012H11.9999V9.99999ZM21.9999 14.012C22.5428 14.0112 23.0809 14.113 23.5859 14.312C23.2069 17.524 22.9119 20.756 22.6689 23.996H7.33094C7.08794 20.756 6.79294 17.524 6.41394 14.312C6.91898 14.113 7.45709 14.0112 7.99994 14.012H21.9999ZM2.01094 40.873L3.65294 18.073C3.71393 17.2191 4.02717 16.4026 4.55294 15.727C5.50832 24.1621 5.99141 32.644 5.99994 41.133V45.919C4.88381 45.7303 3.87027 45.1533 3.13835 44.2898C2.40642 43.4263 2.00321 42.3319 1.99994 41.2C1.99994 41.09 1.99994 40.98 2.01094 40.873ZM26.6749 57.854C26.5425 58.4641 26.2045 59.0101 25.7175 59.4008C25.2306 59.7914 24.6242 60.003 23.9999 60H5.99994C5.37566 60.003 4.7693 59.7914 4.28234 59.4008C3.79539 59.0101 3.4574 58.4641 3.32494 57.854L2.28194 53.16C3.14283 53.7075 4.1417 53.9988 5.16194 54H24.8379C25.8582 53.9988 26.8571 53.7075 27.7179 53.16L26.6749 57.854ZM24.4999 48C25.2148 48.0019 25.912 48.2226 26.4976 48.6326C27.0833 49.0425 27.5294 49.622 27.7759 50.293C27.4804 50.8114 27.0529 51.2424 26.5369 51.5422C26.0209 51.842 25.4347 52 24.8379 52H5.16194C4.56601 51.9991 3.98089 51.8407 3.46584 51.541C2.95079 51.2412 2.52409 50.8107 2.22894 50.293C2.47547 49.622 2.92157 49.0425 3.50724 48.6326C4.09291 48.2226 4.79006 48.0019 5.50494 48H24.4999ZM23.9999 45.919V41.133C24.0086 32.6429 24.4921 24.16 25.4479 15.724C25.9739 16.4002 26.2872 17.2174 26.3479 18.072L27.9899 40.872C27.9979 40.982 28.0009 41.092 28.0009 41.202C27.9972 42.3337 27.5936 43.4278 26.8615 44.2909C26.1294 45.1539 25.1159 45.7306 23.9999 45.919ZM61.9999 41.2C61.9999 41.043 61.9949 40.887 61.9839 40.729L60.3419 17.929C60.2261 16.3246 59.5082 14.8233 58.3321 13.7259C57.1559 12.6286 55.6085 12.0164 53.9999 12.012H51.9999V9.94799C52.5247 9.87235 53.0254 9.6785 53.4643 9.38105C53.9032 9.0836 54.2687 8.69033 54.5334 8.23094C54.798 7.77154 54.9549 7.25803 54.992 6.72916C55.0292 6.20029 54.9457 5.66988 54.7479 5.17799L53.6709 2.48599C53.3795 1.75086 52.8734 1.12054 52.2186 0.677122C51.5639 0.233706 50.7907 -0.00225061 49.9999 -1.40724e-05H43.9999C43.2088 -0.00229975 42.4352 0.233726 41.7801 0.677319C41.125 1.12091 40.6186 1.75151 40.3269 2.48699L39.2509 5.17999C39.0535 5.67185 38.9704 6.20213 39.0078 6.73081C39.0452 7.2595 39.2022 7.77278 39.4669 8.23194C39.7316 8.6911 40.0972 9.08414 40.536 9.38141C40.9748 9.67867 41.4753 9.87241 41.9999 9.94799V12.012H39.9999C38.3916 12.0164 36.8442 12.6285 35.6681 13.7256C34.492 14.8227 33.774 16.3238 33.6579 17.928L32.0159 40.728C32.0049 40.884 31.9999 41.04 31.9999 41.197C32.0015 42.2717 32.2581 43.3306 32.7487 44.2868C33.2393 45.2429 33.9499 46.069 34.8219 46.697C33.7869 47.2738 32.9659 48.1694 32.481 49.2505C31.9961 50.3317 31.8733 51.5404 32.1309 52.697L33.3729 58.286C33.6015 59.3417 34.1859 60.2868 35.0283 60.9629C35.8707 61.6391 36.9198 62.0052 37.9999 62H55.9999C57.0798 62.0053 58.1287 61.6394 58.971 60.9637C59.8134 60.2879 60.398 59.3433 60.6269 58.288L61.8689 52.7C62.1265 51.5435 62.0037 50.3347 61.5189 49.2535C61.034 48.1724 60.2129 47.2768 59.1779 46.7C60.05 46.072 60.7606 45.2459 61.2511 44.2898C61.7417 43.3336 61.9984 42.2747 61.9999 41.2ZM53.9999 41.2C53.3947 41.7108 52.6299 41.9938 51.8379 42H42.1619C41.37 41.9938 40.6052 41.7108 39.9999 41.2V41.136C39.9999 39.761 39.9619 38.381 39.9369 37.003H54.0629C54.0379 38.378 53.9999 39.758 53.9999 41.133V41.2ZM54.0929 35H39.9069C39.8263 32 39.6846 29 39.4819 26H54.5179C54.3199 29 54.1783 32 54.0929 35ZM39.9999 43.538C40.6808 43.8401 41.417 43.9974 42.1619 44H51.8379C52.5828 43.9974 53.3191 43.8401 53.9999 43.538V46H39.9999V43.538ZM40.9999 6.48399C41.0002 6.29152 41.0368 6.10083 41.1079 5.92199L42.1849 3.22899C42.3288 2.86535 42.5789 2.55354 42.9027 2.33429C43.2265 2.11503 43.6089 1.99853 43.9999 1.99999H49.9999C50.3908 1.99859 50.7731 2.11514 51.0967 2.33439C51.4203 2.55365 51.6703 2.86543 51.8139 3.22899L52.8909 5.92099C52.9831 6.15088 53.0176 6.39987 52.9912 6.64616C52.9649 6.89245 52.8786 7.12852 52.7398 7.3337C52.601 7.53887 52.4141 7.7069 52.1953 7.82306C51.9765 7.93922 51.7326 7.99997 51.4849 7.99999H42.5149C42.1131 7.99946 41.7279 7.83953 41.4439 7.55531C41.1599 7.27109 41.0002 6.8858 40.9999 6.48399ZM43.9999 9.99999H49.9999V12.012H43.9999V9.99999ZM53.9999 14.012C54.5428 14.0112 55.0809 14.113 55.5859 14.312C55.2069 17.524 54.9119 20.756 54.6689 23.996H39.3309C39.0879 20.756 38.7929 17.524 38.4139 14.312C38.919 14.113 39.4571 14.0112 39.9999 14.012H53.9999ZM34.0109 40.873L35.6529 18.073C35.7139 17.2191 36.0272 16.4026 36.5529 15.727C37.5083 24.1621 37.9914 32.644 37.9999 41.133V45.919C36.8838 45.7303 35.8703 45.1533 35.1383 44.2898C34.4064 43.4263 34.0032 42.3319 33.9999 41.2C33.9999 41.09 33.9999 40.98 34.0109 40.873ZM58.6749 57.854C58.5425 58.4641 58.2045 59.0101 57.7175 59.4008C57.2306 59.7914 56.6242 60.003 55.9999 60H37.9999C37.3757 60.003 36.7693 59.7914 36.2823 59.4008C35.7954 59.0101 35.4574 58.4641 35.3249 57.854L34.2819 53.16C35.1428 53.7075 36.1417 53.9988 37.1619 54H56.8379C57.8582 53.9988 58.857 53.7075 59.7179 53.16L58.6749 57.854ZM56.4999 48C57.2148 48.0019 57.912 48.2226 58.4976 48.6326C59.0833 49.0425 59.5294 49.622 59.7759 50.293C59.4804 50.8114 59.0529 51.2424 58.5369 51.5422C58.0209 51.842 57.4347 52 56.8379 52H37.1619C36.566 51.9991 35.9809 51.8407 35.4658 51.541C34.9508 51.2412 34.5241 50.8107 34.2289 50.293C34.4755 49.622 34.9216 49.0425 35.5072 48.6326C36.0929 48.2226 36.7901 48.0019 37.5049 48H56.4999ZM55.9999 45.919V41.133C56.0086 32.6429 56.4921 24.16 57.4479 15.724C57.9739 16.4002 58.2872 17.2174 58.3479 18.072L59.9899 40.872C59.9979 40.982 60.0009 41.092 60.0009 41.202C59.9972 42.3337 59.5936 43.4278 58.8615 44.2909C58.1294 45.1539 57.1159 45.7306 55.9999 45.919Z" fill="black"/>
</svg>
