<svg width="24" height="24" viewBox="0 0 24 24" fill="none" xmlns="http://www.w3.org/2000/svg">
<path fill-rule="evenodd" clip-rule="evenodd" d="M4 2.75C3.30964 2.75 2.75 3.30964 2.75 4C2.75 4.69036 3.30964 5.25 4 5.25C4.69036 5.25 5.25 4.69036 5.25 4C5.25 3.30964 4.69036 2.75 4 2.75ZM1.25 4C1.25 2.48122 2.48122 1.25 4 1.25C5.51878 1.25 6.75 2.48122 6.75 4C6.75 5.51878 5.51878 6.75 4 6.75C2.48122 6.75 1.25 5.51878 1.25 4ZM4 18.75C3.30964 18.75 2.75 19.3096 2.75 20C2.75 20.6904 3.30964 21.25 4 21.25C4.69036 21.25 5.25 20.6904 5.25 20C5.25 19.3096 4.69036 18.75 4 18.75ZM1.25 20C1.25 18.4812 2.48122 17.25 4 17.25C5.51878 17.25 6.75 18.4812 6.75 20C6.75 21.5188 5.51878 22.75 4 22.75C2.48122 22.75 1.25 21.5188 1.25 20ZM12 18.75C11.3096 18.75 10.75 19.3096 10.75 20C10.75 20.6904 11.3096 21.25 12 21.25C12.6904 21.25 13.25 20.6904 13.25 20C13.25 19.3096 12.6904 18.75 12 18.75ZM9.25 20C9.25 18.4812 10.4812 17.25 12 17.25C13.5188 17.25 14.75 18.4812 14.75 20C14.75 21.5188 13.5188 22.75 12 22.75C10.4812 22.75 9.25 21.5188 9.25 20ZM12 2.75C11.3096 2.75 10.75 3.30964 10.75 4C10.75 4.69036 11.3096 5.25 12 5.25C12.6904 5.25 13.25 4.69036 13.25 4C13.25 3.30964 12.6904 2.75 12 2.75ZM9.25 4C9.25 2.48122 10.4812 1.25 12 1.25C13.5188 1.25 14.75 2.48122 14.75 4C14.75 5.51878 13.5188 6.75 12 6.75C10.4812 6.75 9.25 5.51878 9.25 4ZM20 2.75C19.3096 2.75 18.75 3.30964 18.75 4C18.75 4.69036 19.3096 5.25 20 5.25C20.6904 5.25 21.25 4.69036 21.25 4C21.25 3.30964 20.6904 2.75 20 2.75ZM17.25 4C17.25 2.48122 18.4812 1.25 20 1.25C21.5188 1.25 22.75 2.48122 22.75 4C22.75 5.51878 21.5188 6.75 20 6.75C18.4812 6.75 17.25 5.51878 17.25 4Z" fill="#111111"/>
<path fill-rule="evenodd" clip-rule="evenodd" d="M12 5.25C12.4142 5.25 12.75 5.58579 12.75 6V13C12.75 13.4142 12.4142 13.75 12 13.75C11.5858 13.75 11.25 13.4142 11.25 13V6C11.25 5.58579 11.5858 5.25 12 5.25ZM12 15.25C12.4142 15.25 12.75 15.5858 12.75 16V18C12.75 18.4142 12.4142 18.75 12 18.75C11.5858 18.75 11.25 18.4142 11.25 18V16C11.25 15.5858 11.5858 15.25 12 15.25ZM4 18.75C4.41421 18.75 4.75 18.4142 4.75 18V11C4.75 10.5858 4.41421 10.25 4 10.25C3.58579 10.25 3.25 10.5858 3.25 11V18C3.25 18.4142 3.58579 18.75 4 18.75ZM4 8.75C4.41421 8.75 4.75 8.41421 4.75 8V6C4.75 5.58579 4.41421 5.25 4 5.25C3.58579 5.25 3.25 5.58579 3.25 6V8C3.25 8.41421 3.58579 8.75 4 8.75Z" fill="#111111"/>
<path fill-rule="evenodd" clip-rule="evenodd" d="M20 5.25C20.4142 5.25 20.75 5.58579 20.75 6V8.05199C20.75 8.95048 20.7501 9.6997 20.6701 10.2945C20.5857 10.9223 20.4 11.4891 19.9445 11.9445C19.4891 12.4 18.9223 12.5857 18.2945 12.6701C17.6997 12.7501 16.9505 12.75 16.052 12.75H10C9.58579 12.75 9.25 12.4142 9.25 12C9.25 11.5858 9.58579 11.25 10 11.25H16C16.964 11.25 17.6116 11.2484 18.0946 11.1835C18.5561 11.1214 18.7536 11.0142 18.8839 10.8839C19.0142 10.7536 19.1214 10.5561 19.1835 10.0946C19.2484 9.61157 19.25 8.96401 19.25 8V6C19.25 5.58579 19.5858 5.25 20 5.25ZM3.25 12C3.25 11.5858 3.58579 11.25 4 11.25H6C6.41421 11.25 6.75 11.5858 6.75 12C6.75 12.4142 6.41421 12.75 6 12.75H4C3.58579 12.75 3.25 12.4142 3.25 12ZM17.25 15C17.25 14.5858 17.5858 14.25 18 14.25H20.2857C21.6612 14.25 22.75 15.3839 22.75 16.75C22.75 17.8285 22.0713 18.7624 21.1086 19.1077L22.6396 21.6084C22.8559 21.9616 22.7449 22.4234 22.3916 22.6396C22.0384 22.8559 21.5766 22.7449 21.3604 22.3916L19.4369 19.25H18.75V22C18.75 22.4142 18.4142 22.75 18 22.75C17.5858 22.75 17.25 22.4142 17.25 22V15ZM18.75 17.75H20.2857C20.8038 17.75 21.25 17.3169 21.25 16.75C21.25 16.1831 20.8038 15.75 20.2857 15.75H18.75V17.75Z" fill="#111111"/>
</svg>
