<svg width="56" height="36" viewBox="0 0 56 36" fill="none" xmlns="http://www.w3.org/2000/svg">
<path d="M37.8637 15.0938C41.9324 15.0938 45.2617 11.824 45.2617 7.82813C45.2617 3.8324 41.9324 0.5625 37.8637 0.5625C33.795 0.5625 30.466 3.8324 30.466 7.82813C30.466 11.824 33.795 15.0938 37.8637 15.0938ZM18.1363 15.0938C22.205 15.0938 25.534 11.824 25.534 7.82813C25.534 3.8324 22.205 0.5625 18.1363 0.5625C14.0676 0.5625 10.7383 3.8324 10.7383 7.82813C10.7383 11.824 14.0676 15.0938 18.1363 15.0938ZM18.1363 20.4219C12.3408 20.4219 0.874518 23.2068 0.874518 28.8985V35.4375H35.7501V28.8985C35.7501 23.2068 23.9313 20.4219 18.1363 20.4219ZM37.8637 21.7543C37.1245 21.7543 36.6134 21.7543 35.7501 21.875C38.5869 23.9339 39.6252 25.2657 39.6252 28.8985V35.4375H55.1255V28.8985C55.1255 23.2068 43.6592 21.7543 37.8637 21.7543Z" fill="black"/>
</svg>
